G04 Layer: BottomSilkscreenLayer*
G04 EasyEDA v6.5.51, 2026-01-08 14:15:24*
G04 8ef0b08dc1df4c4d9fe98ab44df64a74,135c0aa5003143b9a617c0a099cfb315,10*
G04 Gerber Generator version 0.2*
G04 Scale: 100 percent, Rotated: No, Reflected: No *
G04 Dimensions in millimeters *
G04 leading zeros omitted , absolute positions ,4 integer and 5 decimal *
%FSLAX45Y45*%
%MOMM*%

%ADD10C,0.2032*%
%ADD11C,0.0151*%

%LPD*%
G36*
X1306372Y3570528D02*
G01*
X1211122Y3566515D01*
X1096822Y3560216D01*
X1036523Y3554171D01*
X992073Y3547719D01*
X953973Y3541369D01*
X922223Y3535121D01*
X893622Y3528822D01*
X865073Y3522218D01*
X820623Y3510127D01*
X763473Y3491026D01*
X712673Y3470808D01*
X655523Y3443630D01*
X592023Y3405886D01*
X541223Y3368446D01*
X472846Y3301847D01*
X445973Y3266541D01*
X441858Y3263341D01*
X408635Y3209391D01*
X377698Y3144520D01*
X377698Y3135122D01*
X371348Y3131210D01*
X371348Y3118815D01*
X365607Y3107791D01*
X352806Y3056991D01*
X346252Y3022041D01*
X341419Y2980791D01*
X430174Y2980791D01*
X435101Y3012541D01*
X441706Y3047441D01*
X448411Y3072841D01*
X460654Y3110941D01*
X465835Y3123641D01*
X487019Y3168091D01*
X531266Y3234791D01*
X595172Y3299002D01*
X648411Y3338169D01*
X692759Y3364077D01*
X743153Y3388969D01*
X792022Y3408375D01*
X855522Y3429050D01*
X882548Y3436416D01*
X906322Y3442360D01*
X934923Y3448812D01*
X957122Y3452520D01*
X988872Y3458616D01*
X1033322Y3465271D01*
X1087323Y3471265D01*
X1169873Y3477818D01*
X1325422Y3480206D01*
X1344472Y3477768D01*
X1474673Y3470859D01*
X1531823Y3465474D01*
X1588973Y3458616D01*
X1636572Y3452469D01*
X1681073Y3446170D01*
X1722323Y3439871D01*
X1760423Y3433521D01*
X1831848Y3420516D01*
X1865223Y3414166D01*
X1925523Y3401517D01*
X1985873Y3388106D01*
X2011273Y3382060D01*
X2036673Y3376422D01*
X2112873Y3357422D01*
X2138273Y3350260D01*
X2160473Y3344722D01*
X2185873Y3337560D01*
X2208123Y3332022D01*
X2233523Y3324758D01*
X2251049Y3321354D01*
X2254504Y3315766D01*
X2270099Y3315766D01*
X2281123Y3310026D01*
X2309723Y3302304D01*
X2373223Y3283254D01*
X2385923Y3278378D01*
X2471623Y3251504D01*
X2484323Y3246170D01*
X2563723Y3220212D01*
X2576423Y3214471D01*
X2604973Y3205226D01*
X2633573Y3194456D01*
X2668473Y3181756D01*
X2681173Y3176676D01*
X2703423Y3169056D01*
X2719273Y3162503D01*
X2731973Y3157575D01*
X2785973Y3137357D01*
X2825648Y3121202D01*
X2865323Y3105353D01*
X2878023Y3100476D01*
X2900273Y3090824D01*
X2935173Y3077108D01*
X2976473Y3059277D01*
X3013151Y3042716D01*
X3015996Y3042716D01*
X3057550Y3023666D01*
X3059938Y3023666D01*
X3116173Y2997809D01*
X3166973Y2975152D01*
X3290519Y2917291D01*
X3487623Y2818333D01*
X3570173Y2775153D01*
X3608273Y2754579D01*
X3665423Y2724404D01*
X3671773Y2719781D01*
X3716223Y2695702D01*
X3893769Y2594254D01*
X4036923Y2508097D01*
X4154373Y2434183D01*
X4233773Y2383485D01*
X4267200Y2361641D01*
X4263186Y2336241D01*
X4256176Y2323541D01*
X4255973Y2240991D01*
X4264660Y2212441D01*
X4269536Y2199741D01*
X4284573Y2169109D01*
X4318254Y2128012D01*
X4357573Y2099056D01*
X4386681Y2084273D01*
X4427423Y2071674D01*
X4468723Y2068372D01*
X4513173Y2073706D01*
X4538065Y2080260D01*
X4583023Y2102662D01*
X4601464Y2118766D01*
X4605324Y2118766D01*
X4635042Y2098141D01*
X4671923Y2069642D01*
X4704283Y2044141D01*
X4728870Y2025091D01*
X4806746Y1963267D01*
X4922723Y1866392D01*
X4944973Y1846630D01*
X5024323Y1777542D01*
X5027523Y1774291D01*
X5094173Y1713941D01*
X5157673Y1653895D01*
X5323078Y1488541D01*
X5401665Y1402791D01*
X5424525Y1377391D01*
X5500725Y1288491D01*
X5577027Y1193241D01*
X5640679Y1107541D01*
X5672683Y1063091D01*
X5710682Y1005941D01*
X5752033Y939241D01*
X5780532Y891641D01*
X5820918Y816914D01*
X5805373Y806602D01*
X5764123Y763930D01*
X5744006Y723341D01*
X5739688Y710641D01*
X5730748Y677011D01*
X5730748Y610920D01*
X5736285Y596341D01*
X5744006Y570941D01*
X5756808Y542696D01*
X5781548Y506272D01*
X5819749Y472541D01*
X5838139Y462534D01*
X5853023Y453034D01*
X5881573Y441553D01*
X5903823Y435457D01*
X5951423Y431241D01*
X5957468Y383641D01*
X5957570Y304241D01*
X5950000Y243941D01*
X5943142Y212191D01*
X5939637Y191465D01*
X5933948Y187960D01*
X5933948Y176530D01*
X5914948Y129641D01*
X5894882Y91541D01*
X5856732Y34391D01*
X5786323Y-35763D01*
X5760923Y-54965D01*
X5722315Y-81026D01*
X5697423Y-95199D01*
X5637123Y-125018D01*
X5583123Y-145643D01*
X5570423Y-150672D01*
X5535523Y-161544D01*
X5513273Y-167640D01*
X5489448Y-173583D01*
X5462473Y-179984D01*
X5427573Y-186944D01*
X5395823Y-192684D01*
X5354523Y-198983D01*
X5303723Y-205435D01*
X5205323Y-211632D01*
X5087823Y-215392D01*
X4916373Y-204673D01*
X4856073Y-199237D01*
X4798923Y-192836D01*
X4748123Y-186283D01*
X4662373Y-173380D01*
X4627473Y-167843D01*
X4589373Y-161188D01*
X4551273Y-153974D01*
X4487773Y-141274D01*
X4398873Y-122174D01*
X4376623Y-116738D01*
X4348073Y-110286D01*
X4271873Y-90525D01*
X4249623Y-85293D01*
X4176623Y-65024D01*
X4160723Y-61976D01*
X4148023Y-56845D01*
X4119473Y-49022D01*
X4103573Y-44145D01*
X4075023Y-36322D01*
X4062323Y-31445D01*
X4033723Y-23418D01*
X3976573Y-5334D01*
X3878173Y26568D01*
X3867150Y32766D01*
X3857447Y32766D01*
X3846423Y38811D01*
X3805123Y52273D01*
X3792423Y57556D01*
X3716223Y84023D01*
X3703523Y89357D01*
X3659073Y106578D01*
X3610356Y124307D01*
X3589223Y133705D01*
X3481273Y176276D01*
X3455365Y188010D01*
X3421481Y201371D01*
X3392373Y214426D01*
X3373323Y222554D01*
X3343249Y235966D01*
X3340252Y235966D01*
X3265373Y270306D01*
X3233623Y284378D01*
X3173323Y312470D01*
X3109925Y342341D01*
X2871673Y461264D01*
X2814523Y491998D01*
X2754223Y523951D01*
X2658973Y576630D01*
X2595473Y612902D01*
X2563723Y630377D01*
X2471623Y684631D01*
X2414473Y719429D01*
X2395423Y730504D01*
X2350973Y757580D01*
X2324404Y775716D01*
X2321001Y775716D01*
X2195423Y856386D01*
X2074773Y935736D01*
X2068423Y941374D01*
X1976323Y1004417D01*
X1922373Y1042060D01*
X1848815Y1095502D01*
X1747723Y1170838D01*
X1620723Y1269644D01*
X1608023Y1279906D01*
X1436573Y1422654D01*
X1401622Y1454607D01*
X1418894Y1488541D01*
X1433220Y1532991D01*
X1433220Y1626514D01*
X1425448Y1634236D01*
X1425448Y1644853D01*
X1411528Y1679041D01*
X1386433Y1716532D01*
X1363878Y1741525D01*
X1325422Y1768906D01*
X1288237Y1788210D01*
X1255572Y1797405D01*
X1225346Y1804416D01*
X1182573Y1804263D01*
X1153972Y1798116D01*
X1128572Y1791004D01*
X1115872Y1786280D01*
X1090472Y1773783D01*
X1075842Y1764741D01*
X1056233Y1786991D01*
X1007922Y1837842D01*
X960323Y1891741D01*
X956716Y1894941D01*
X880618Y1983841D01*
X804316Y2079091D01*
X747420Y2155291D01*
X712216Y2206091D01*
X689457Y2237841D01*
X637082Y2320391D01*
X603961Y2377541D01*
X577392Y2425141D01*
X525322Y2529941D01*
X491337Y2615641D01*
X485952Y2628341D01*
X465785Y2691841D01*
X460756Y2704541D01*
X456793Y2723591D01*
X450392Y2748991D01*
X444093Y2777591D01*
X437997Y2809341D01*
X430276Y2866491D01*
X430174Y2980791D01*
X341419Y2980791D01*
X338785Y2958541D01*
X342747Y2853791D01*
X348538Y2809341D01*
X355447Y2768041D01*
X361492Y2739491D01*
X368452Y2710891D01*
X374091Y2688691D01*
X380238Y2666441D01*
X391109Y2631541D01*
X396443Y2618841D01*
X405688Y2590241D01*
X432206Y2523591D01*
X441858Y2501341D01*
X504037Y2374341D01*
X540359Y2310841D01*
X601014Y2212441D01*
X639013Y2155291D01*
X696264Y2075891D01*
X725982Y2036267D01*
X822655Y1915058D01*
X905916Y1818741D01*
X976121Y1742541D01*
X1011123Y1705610D01*
X1013104Y1700123D01*
X997254Y1675841D01*
X981862Y1634591D01*
X974598Y1604314D01*
X974598Y1534922D01*
X980948Y1531010D01*
X980948Y1517497D01*
X994562Y1479194D01*
X1010412Y1450441D01*
X1031595Y1421231D01*
X1060145Y1394917D01*
X1095959Y1371955D01*
X1140561Y1353566D01*
X1155192Y1353566D01*
X1159154Y1347216D01*
X1238504Y1347216D01*
X1268272Y1354124D01*
X1280972Y1359357D01*
X1309573Y1369872D01*
X1333246Y1385316D01*
X1348740Y1385316D01*
X1350822Y1380540D01*
X1417523Y1322984D01*
X1526489Y1232408D01*
X1615338Y1161491D01*
X1661109Y1126591D01*
X1668373Y1119886D01*
X1808683Y1015441D01*
X1874723Y967536D01*
X1938223Y922883D01*
X2030323Y859383D01*
X2125573Y796188D01*
X2277973Y698601D01*
X2297023Y687628D01*
X2338273Y661771D01*
X2420823Y612241D01*
X2428748Y610158D01*
X2428748Y604266D01*
X2434996Y604266D01*
X2477973Y577951D01*
X2500223Y565251D01*
X2535123Y546150D01*
X2551023Y535381D01*
X2585923Y516331D01*
X2693873Y456082D01*
X2744368Y428955D01*
X2798673Y400304D01*
X2843123Y376326D01*
X3046323Y274523D01*
X3122523Y238455D01*
X3163773Y219405D01*
X3209188Y198069D01*
X3325723Y146761D01*
X3344773Y138074D01*
X3379165Y124510D01*
X3408273Y111506D01*
X3449523Y93624D01*
X3484473Y79908D01*
X3503523Y71577D01*
X3589223Y38455D01*
X3616147Y26416D01*
X3620973Y26466D01*
X3684473Y1676D01*
X3706723Y-5943D01*
X3719423Y-11023D01*
X3741623Y-18643D01*
X3754323Y-23926D01*
X3795623Y-37490D01*
X3808323Y-43180D01*
X3948023Y-88646D01*
X3960723Y-93472D01*
X4008323Y-107696D01*
X4021023Y-112725D01*
X4036923Y-116890D01*
X4055973Y-122275D01*
X4100423Y-135991D01*
X4141673Y-147777D01*
X4192473Y-161340D01*
X4214723Y-167640D01*
X4236923Y-173177D01*
X4259173Y-179527D01*
X4271873Y-182727D01*
X4329023Y-196138D01*
X4351223Y-201777D01*
X4382973Y-208940D01*
X4405223Y-214579D01*
X4424273Y-218389D01*
X4451248Y-224383D01*
X4481423Y-230733D01*
X4544923Y-242874D01*
X4617923Y-256133D01*
X4656023Y-262483D01*
X4744923Y-275437D01*
X4795723Y-281736D01*
X4852873Y-287883D01*
X4925923Y-294081D01*
X5068773Y-301650D01*
X5160873Y-301091D01*
X5291023Y-293979D01*
X5341823Y-288340D01*
X5395823Y-281584D01*
X5433923Y-275234D01*
X5462473Y-269544D01*
X5494223Y-262636D01*
X5545023Y-249377D01*
X5567273Y-242925D01*
X5584799Y-239521D01*
X5588254Y-233934D01*
X5599023Y-233934D01*
X5649823Y-214274D01*
X5662523Y-208991D01*
X5741873Y-170789D01*
X5775706Y-151282D01*
X5812485Y-126288D01*
X5860694Y-87985D01*
X5901080Y-48158D01*
X5933186Y-10058D01*
X5971743Y47599D01*
X6000140Y104241D01*
X6009741Y126441D01*
X6020460Y158191D01*
X6026454Y180441D01*
X6032804Y205841D01*
X6038850Y237591D01*
X6044895Y291541D01*
X6049213Y347167D01*
X6041694Y424891D01*
X6038850Y452018D01*
X6075273Y474878D01*
X6112357Y510641D01*
X6135979Y545541D01*
X6147104Y569620D01*
X6157569Y602691D01*
X6157569Y685241D01*
X6149441Y710641D01*
X6144310Y723341D01*
X6129223Y754837D01*
X6102705Y791006D01*
X6063640Y823518D01*
X6033973Y838403D01*
X5995873Y851153D01*
X5943142Y858672D01*
X5908192Y851408D01*
X5899759Y854659D01*
X5881827Y891641D01*
X5860084Y929741D01*
X5805627Y1021791D01*
X5725210Y1142441D01*
X5634431Y1263091D01*
X5576011Y1336141D01*
X5477002Y1451356D01*
X5399328Y1536141D01*
X5196332Y1739341D01*
X5141823Y1789785D01*
X5106822Y1821891D01*
X5075021Y1850491D01*
X5027625Y1891741D01*
X4998923Y1917547D01*
X4919573Y1983841D01*
X4906873Y1995627D01*
X4738573Y2130196D01*
X4657598Y2192070D01*
X4657598Y2196846D01*
X4662881Y2202891D01*
X4669790Y2228291D01*
X4676648Y2262124D01*
X4676648Y2288235D01*
X4669434Y2326741D01*
X4656683Y2364740D01*
X4630775Y2407970D01*
X4592523Y2444546D01*
X4560773Y2463647D01*
X4532223Y2475230D01*
X4506823Y2481630D01*
X4437126Y2484323D01*
X4408373Y2476906D01*
X4389323Y2470607D01*
X4348073Y2450947D01*
X4325975Y2433066D01*
X4317644Y2433066D01*
X4261815Y2470658D01*
X4189323Y2516581D01*
X4087723Y2580132D01*
X4005173Y2630881D01*
X3985463Y2642006D01*
X3938473Y2670251D01*
X3886911Y2700223D01*
X3855923Y2717952D01*
X3822293Y2737916D01*
X3820058Y2737916D01*
X3720337Y2795066D01*
X3718306Y2795066D01*
X3640023Y2838602D01*
X3576523Y2872232D01*
X3309569Y3006191D01*
X3192373Y3060700D01*
X3166973Y3072028D01*
X3128873Y3089656D01*
X3097123Y3103727D01*
X3063595Y3118916D01*
X3060750Y3118916D01*
X3019145Y3137966D01*
X3016046Y3137966D01*
X2959049Y3163366D01*
X2955747Y3163366D01*
X2925673Y3176574D01*
X2914599Y3182416D01*
X2908096Y3182416D01*
X2878023Y3195726D01*
X2846273Y3208629D01*
X2816098Y3220516D01*
X2798673Y3227679D01*
X2785973Y3232556D01*
X2763723Y3240176D01*
X2747873Y3246729D01*
X2697073Y3265576D01*
X2684373Y3270656D01*
X2662123Y3278276D01*
X2649423Y3283356D01*
X2627223Y3290976D01*
X2614523Y3296412D01*
X2535123Y3322370D01*
X2522423Y3328009D01*
X2481173Y3341268D01*
X2458923Y3347923D01*
X2446223Y3353104D01*
X2398623Y3367430D01*
X2363673Y3378403D01*
X2335123Y3386328D01*
X2322423Y3391204D01*
X2293823Y3399028D01*
X2277973Y3403904D01*
X2249373Y3411728D01*
X2233523Y3416604D01*
X2204923Y3424377D01*
X2190343Y3430066D01*
X2175154Y3430066D01*
X2171649Y3435705D01*
X2150973Y3439109D01*
X2046173Y3465372D01*
X2027123Y3468573D01*
X2014423Y3474008D01*
X1992223Y3477615D01*
X1963623Y3484067D01*
X1871573Y3503371D01*
X1842973Y3508857D01*
X1785823Y3519119D01*
X1731873Y3528212D01*
X1687423Y3535121D01*
X1639773Y3541420D01*
X1592122Y3547262D01*
X1468323Y3559962D01*
X1309827Y3566871D01*
G37*
G36*
X1817573Y3007309D02*
G01*
X1703273Y3001619D01*
X1652473Y2995015D01*
X1614373Y2989173D01*
X1595323Y2985211D01*
X1566722Y2978810D01*
X1541322Y2972358D01*
X1496872Y2959404D01*
X1484172Y2954426D01*
X1446072Y2940100D01*
X1384452Y2909874D01*
X1334973Y2876753D01*
X1282446Y2832354D01*
X1277823Y2824175D01*
X1255268Y2799791D01*
X1229461Y2761691D01*
X1202334Y2707741D01*
X1197508Y2695041D01*
X1191260Y2675991D01*
X1178102Y2625191D01*
X1173378Y2596591D01*
X1173083Y2495397D01*
X1260348Y2495397D01*
X1260348Y2586329D01*
X1266139Y2609291D01*
X1273505Y2644241D01*
X1278788Y2656941D01*
X1293215Y2695041D01*
X1304798Y2711856D01*
X1304798Y2716123D01*
X1324914Y2745333D01*
X1369669Y2792425D01*
X1406499Y2820466D01*
X1409293Y2820466D01*
X1433017Y2836519D01*
X1490522Y2864307D01*
X1557223Y2886506D01*
X1598472Y2896158D01*
X1617522Y2900222D01*
X1649272Y2906268D01*
X1696923Y2912465D01*
X1782673Y2918510D01*
X1909673Y2917748D01*
X1995373Y2913075D01*
X2058873Y2906268D01*
X2106523Y2899308D01*
X2144623Y2894126D01*
X2220823Y2880715D01*
X2300986Y2864612D01*
X2341473Y2855722D01*
X2366873Y2849321D01*
X2395423Y2842818D01*
X2446223Y2829458D01*
X2468473Y2824022D01*
X2557373Y2798622D01*
X2573223Y2794508D01*
X2585923Y2789428D01*
X2614523Y2781350D01*
X2754223Y2735122D01*
X2808173Y2715107D01*
X2824073Y2710078D01*
X2868523Y2692857D01*
X2881223Y2687675D01*
X2973273Y2651607D01*
X3014573Y2633624D01*
X3048965Y2620060D01*
X3140151Y2579116D01*
X3142335Y2579116D01*
X3259023Y2524252D01*
X3376523Y2465679D01*
X3464407Y2420162D01*
X3478123Y2411679D01*
X3527653Y2385263D01*
X3586073Y2352903D01*
X3652723Y2314702D01*
X3779723Y2238400D01*
X3855923Y2190800D01*
X4008323Y2089353D01*
X4049623Y2059584D01*
X4116273Y2012391D01*
X4232605Y1924964D01*
X4322267Y1853641D01*
X4402023Y1787296D01*
X4478223Y1720443D01*
X4560773Y1644243D01*
X4684623Y1520291D01*
X4751578Y1447241D01*
X4808677Y1380591D01*
X4849723Y1329791D01*
X4853127Y1326591D01*
X4910886Y1249781D01*
X4968392Y1163828D01*
X4995113Y1120241D01*
X5007914Y1097991D01*
X5030825Y1056741D01*
X5053939Y1009091D01*
X5067858Y977341D01*
X5077256Y955141D01*
X5081879Y945591D01*
X5102910Y878941D01*
X5107990Y866241D01*
X5117998Y818591D01*
X5125770Y774141D01*
X5125821Y678891D01*
X5118354Y640791D01*
X5114340Y621741D01*
X5109108Y609041D01*
X5094579Y570941D01*
X5068773Y527050D01*
X5015484Y470712D01*
X4965293Y435356D01*
X4913223Y408686D01*
X4862423Y389128D01*
X4817973Y376174D01*
X4792573Y369824D01*
X4738573Y359562D01*
X4687773Y353161D01*
X4614773Y347573D01*
X4494123Y347421D01*
X4392523Y353466D01*
X4335373Y359613D01*
X4284573Y365912D01*
X4240123Y372618D01*
X4205173Y378256D01*
X4167073Y384911D01*
X4128973Y392125D01*
X4071823Y404215D01*
X4043273Y410972D01*
X4017873Y416610D01*
X3916273Y441959D01*
X3860698Y457860D01*
X3833723Y465124D01*
X3821023Y470204D01*
X3792423Y478180D01*
X3738473Y495401D01*
X3690823Y510184D01*
X3684778Y515366D01*
X3670554Y515366D01*
X3666642Y521716D01*
X3654247Y521716D01*
X3643223Y527761D01*
X3601923Y541223D01*
X3589223Y546506D01*
X3551123Y560476D01*
X3538423Y565556D01*
X3500323Y579628D01*
X3473399Y591566D01*
X3466947Y591566D01*
X3436823Y604926D01*
X3424123Y610006D01*
X3401923Y619658D01*
X3367074Y633323D01*
X3333445Y648716D01*
X3330651Y648716D01*
X3218688Y699516D01*
X3216554Y699516D01*
X3141573Y734974D01*
X2989173Y810717D01*
X2916123Y849274D01*
X2862783Y878078D01*
X2831693Y896366D01*
X2829458Y896366D01*
X2708452Y965962D01*
X2633573Y1011580D01*
X2611374Y1024128D01*
X2585770Y1041755D01*
X2554173Y1060602D01*
X2443429Y1131773D01*
X2360523Y1189532D01*
X2297023Y1234135D01*
X2252573Y1266647D01*
X2176373Y1323187D01*
X2173173Y1326591D01*
X2119223Y1367536D01*
X2017623Y1450390D01*
X1998573Y1467154D01*
X1947773Y1509979D01*
X1893824Y1558391D01*
X1852523Y1596440D01*
X1774088Y1672691D01*
X1683715Y1764741D01*
X1639773Y1812493D01*
X1600911Y1856841D01*
X1549552Y1918817D01*
X1531874Y1942541D01*
X1528267Y1945741D01*
X1464614Y2031441D01*
X1420266Y2098141D01*
X1382014Y2161641D01*
X1354937Y2211527D01*
X1327759Y2266391D01*
X1316837Y2291791D01*
X1305407Y2320391D01*
X1294536Y2348941D01*
X1288389Y2367991D01*
X1283157Y2387041D01*
X1274013Y2421991D01*
X1267206Y2456891D01*
X1260348Y2495397D01*
X1173083Y2495397D01*
X1173073Y2491841D01*
X1178052Y2453741D01*
X1184656Y2418791D01*
X1190955Y2393391D01*
X1195984Y2374341D01*
X1204112Y2345791D01*
X1212291Y2320391D01*
X1231239Y2268474D01*
X1242060Y2244191D01*
X1291386Y2142591D01*
X1327962Y2079091D01*
X1388008Y1986991D01*
X1411478Y1955241D01*
X1475740Y1869541D01*
X1528521Y1806041D01*
X1534972Y1799132D01*
X1569923Y1758492D01*
X1642465Y1679041D01*
X1757273Y1564741D01*
X1846173Y1481988D01*
X1919173Y1418183D01*
X2020773Y1333093D01*
X2154123Y1229512D01*
X2163673Y1221841D01*
X2277973Y1139240D01*
X2370023Y1074928D01*
X2490673Y995934D01*
X2582773Y938580D01*
X2678023Y881380D01*
X2789123Y817930D01*
X2858973Y779373D01*
X2944723Y734263D01*
X3135223Y640029D01*
X3176473Y620826D01*
X3227273Y597966D01*
X3265373Y581355D01*
X3300323Y565505D01*
X3313023Y560476D01*
X3335223Y550824D01*
X3363823Y539851D01*
X3369818Y534416D01*
X3378149Y534416D01*
X3408273Y521106D01*
X3436823Y509879D01*
X3452723Y503326D01*
X3490823Y489254D01*
X3509873Y480923D01*
X3541623Y470611D01*
X3570173Y458876D01*
X3592423Y451256D01*
X3605123Y445820D01*
X3719423Y408330D01*
X3786073Y387858D01*
X3801973Y382778D01*
X3830523Y374954D01*
X3846423Y370078D01*
X3874973Y362254D01*
X3890873Y357378D01*
X3919423Y349859D01*
X3938930Y343916D01*
X3952392Y343916D01*
X3955897Y338277D01*
X3979773Y334924D01*
X4008323Y327710D01*
X4063898Y315366D01*
X4090873Y309575D01*
X4128973Y302006D01*
X4160723Y296113D01*
X4233773Y283667D01*
X4281373Y277063D01*
X4332173Y270611D01*
X4389323Y264820D01*
X4542688Y257505D01*
X4687773Y264566D01*
X4732223Y270713D01*
X4773523Y277012D01*
X4805273Y283210D01*
X4859223Y296722D01*
X4876749Y300228D01*
X4880254Y305816D01*
X4892649Y305816D01*
X4903673Y311708D01*
X4957673Y332435D01*
X4976723Y342798D01*
X5017973Y364439D01*
X5021173Y367893D01*
X5067808Y399440D01*
X5116728Y447141D01*
X5132730Y466394D01*
X5158892Y504951D01*
X5180939Y548741D01*
X5190286Y570941D01*
X5196636Y589991D01*
X5203291Y615391D01*
X5209590Y643991D01*
X5217210Y698195D01*
X5213350Y777341D01*
X5206949Y821791D01*
X5200954Y853541D01*
X5194604Y878941D01*
X5187848Y902716D01*
X5182260Y923391D01*
X5171643Y955141D01*
X5166207Y967841D01*
X5155590Y996391D01*
X5136235Y1040841D01*
X5096662Y1120241D01*
X5050383Y1199591D01*
X4986934Y1294841D01*
X4923180Y1380591D01*
X4865827Y1450441D01*
X4802124Y1523441D01*
X4700473Y1631391D01*
X4568190Y1758391D01*
X4560722Y1764741D01*
X4503623Y1815896D01*
X4414723Y1891893D01*
X4347514Y1946808D01*
X4284573Y1996186D01*
X4170273Y2082342D01*
X4100423Y2131771D01*
X4090873Y2139442D01*
X4011523Y2193391D01*
X3909923Y2260447D01*
X3824173Y2314752D01*
X3697173Y2390800D01*
X3614623Y2438450D01*
X3544773Y2476601D01*
X3459073Y2522880D01*
X3284423Y2610358D01*
X3240786Y2630220D01*
X3195523Y2651506D01*
X3081223Y2702153D01*
X3020923Y2727553D01*
X2900273Y2775407D01*
X2846273Y2795625D01*
X2833573Y2800959D01*
X2792323Y2814523D01*
X2779623Y2820009D01*
X2738323Y2833573D01*
X2725623Y2838958D01*
X2639923Y2865577D01*
X2627223Y2870758D01*
X2582773Y2884017D01*
X2557373Y2891028D01*
X2541473Y2895904D01*
X2512923Y2903677D01*
X2498293Y2909366D01*
X2485847Y2909366D01*
X2474823Y2915107D01*
X2436723Y2922727D01*
X2424023Y2927705D01*
X2385923Y2935427D01*
X2373223Y2940659D01*
X2354173Y2943961D01*
X2262073Y2963316D01*
X2227173Y2969971D01*
X2192223Y2975965D01*
X2154123Y2981909D01*
X2106523Y2988970D01*
X2055723Y2995117D01*
X1982673Y3001873D01*
X1896973Y3006699D01*
G37*
G36*
X2323134Y2477516D02*
G01*
X2265273Y2470810D01*
X2230323Y2464511D01*
X2198573Y2458008D01*
X2157323Y2445359D01*
X2144623Y2440432D01*
X2077161Y2407361D01*
X2065172Y2396591D01*
X2034844Y2372156D01*
X2000808Y2329891D01*
X1978558Y2288641D01*
X1966112Y2250541D01*
X1958848Y2212035D01*
X1958848Y2147824D01*
X1959552Y2144268D01*
X2047748Y2144268D01*
X2047748Y2211679D01*
X2054809Y2237841D01*
X2059635Y2250541D01*
X2077923Y2287524D01*
X2112162Y2322626D01*
X2145588Y2344013D01*
X2182622Y2360930D01*
X2201773Y2366924D01*
X2223973Y2373172D01*
X2249373Y2379370D01*
X2293823Y2386076D01*
X2462276Y2389022D01*
X2465730Y2385517D01*
X2528773Y2379065D01*
X2573223Y2373274D01*
X2639923Y2360371D01*
X2697073Y2347722D01*
X2722473Y2341422D01*
X2747873Y2334260D01*
X2770073Y2328875D01*
X2868523Y2299157D01*
X2879547Y2293366D01*
X2891942Y2293366D01*
X2895854Y2287016D01*
X2910078Y2287016D01*
X2916123Y2281986D01*
X2941523Y2273909D01*
X2954223Y2268626D01*
X2992323Y2254656D01*
X3005023Y2249576D01*
X3025648Y2241804D01*
X3025648Y2233371D01*
X3018637Y2200706D01*
X3026257Y2148941D01*
X3031998Y2137918D01*
X3031998Y2128367D01*
X3054451Y2086051D01*
X3074517Y2060041D01*
X3097123Y2038604D01*
X3132328Y2014626D01*
X3160623Y2001977D01*
X3173323Y1997506D01*
X3206953Y1988566D01*
X3263696Y1988566D01*
X3293973Y1995779D01*
X3328873Y2008835D01*
X3373323Y2038705D01*
X3395218Y2061616D01*
X3401923Y2061565D01*
X3481273Y2016099D01*
X3524199Y1988566D01*
X3526891Y1988566D01*
X3617823Y1930501D01*
X3674973Y1892401D01*
X3719423Y1860448D01*
X3789273Y1809343D01*
X3884523Y1733346D01*
X3951173Y1676044D01*
X3989273Y1641093D01*
X4094226Y1536141D01*
X4122775Y1504391D01*
X4170629Y1447241D01*
X4211929Y1393291D01*
X4250639Y1336141D01*
X4281678Y1282141D01*
X4305300Y1232763D01*
X4315307Y1205941D01*
X4320540Y1193241D01*
X4324654Y1177391D01*
X4331106Y1155141D01*
X4337812Y1123391D01*
X4338218Y1056741D01*
X4333240Y1031341D01*
X4328261Y1018641D01*
X4309973Y980998D01*
X4268673Y939190D01*
X4255973Y929741D01*
X4217873Y909574D01*
X4157573Y890676D01*
X4122623Y883919D01*
X4083100Y877062D01*
X3932580Y877112D01*
X3887673Y883462D01*
X3833723Y890371D01*
X3792423Y896874D01*
X3769461Y902716D01*
X3749954Y902716D01*
X3745992Y909066D01*
X3729685Y909066D01*
X3706723Y915212D01*
X3643223Y930910D01*
X3617823Y938276D01*
X3597097Y941527D01*
X3593592Y947166D01*
X3582009Y947166D01*
X3459073Y987856D01*
X3373323Y1020114D01*
X3359048Y1025804D01*
X3328873Y1038758D01*
X3294481Y1052271D01*
X3214573Y1087831D01*
X3055823Y1166063D01*
X2995523Y1198727D01*
X2890723Y1259179D01*
X2789123Y1322832D01*
X2712923Y1373632D01*
X2624023Y1437487D01*
X2554173Y1491538D01*
X2500223Y1535277D01*
X2410256Y1613814D01*
X2319782Y1701241D01*
X2227021Y1806041D01*
X2175764Y1872691D01*
X2130450Y1940560D01*
X2114499Y1967941D01*
X2078431Y2040991D01*
X2072436Y2056841D01*
X2066798Y2067864D01*
X2066798Y2077567D01*
X2061057Y2088591D01*
X2054758Y2113991D01*
X2047748Y2144268D01*
X1959552Y2144268D01*
X1972157Y2082241D01*
X1977847Y2063191D01*
X1986838Y2034641D01*
X2000656Y1999691D01*
X2023008Y1952091D01*
X2055164Y1894941D01*
X2105914Y1818741D01*
X2134565Y1780641D01*
X2170023Y1736191D01*
X2183841Y1720850D01*
X2220823Y1677822D01*
X2366924Y1532991D01*
X2468626Y1447241D01*
X2493873Y1426718D01*
X2573985Y1364691D01*
X2662123Y1301851D01*
X2766212Y1232255D01*
X2795473Y1214780D01*
X2849473Y1181252D01*
X2925673Y1136700D01*
X2954223Y1121003D01*
X2973273Y1109980D01*
X3027527Y1081024D01*
X3135223Y1027480D01*
X3176473Y1008176D01*
X3270046Y966216D01*
X3273399Y966216D01*
X3303473Y953008D01*
X3314496Y947166D01*
X3320999Y947166D01*
X3351123Y933856D01*
X3363823Y928776D01*
X3401923Y914806D01*
X3414623Y909726D01*
X3436823Y902106D01*
X3449523Y896975D01*
X3547973Y865530D01*
X3576523Y857554D01*
X3592423Y852678D01*
X3640023Y839978D01*
X3671773Y832510D01*
X3694023Y826922D01*
X3722573Y820521D01*
X3741623Y816610D01*
X3770223Y811225D01*
X3811473Y803960D01*
X3852773Y797915D01*
X3922623Y790041D01*
X4087723Y790143D01*
X4138523Y797966D01*
X4170273Y803757D01*
X4195673Y811123D01*
X4211523Y814324D01*
X4224223Y819556D01*
X4262323Y833831D01*
X4297273Y853033D01*
X4332173Y876808D01*
X4360773Y904341D01*
X4376674Y923391D01*
X4396689Y955141D01*
X4410608Y986891D01*
X4415739Y999591D01*
X4422241Y1028141D01*
X4429912Y1077417D01*
X4425696Y1117041D01*
X4419904Y1158341D01*
X4415993Y1177391D01*
X4409236Y1202791D01*
X4402988Y1221841D01*
X4397908Y1234541D01*
X4389831Y1256741D01*
X4357878Y1326591D01*
X4320590Y1389481D01*
X4281881Y1447241D01*
X4243679Y1498041D01*
X4176928Y1577441D01*
X4034688Y1720291D01*
X3982923Y1765604D01*
X3915968Y1821891D01*
X3891483Y1840941D01*
X3859123Y1866950D01*
X3782923Y1923846D01*
X3751173Y1945284D01*
X3747973Y1949297D01*
X3624173Y2032101D01*
X3539185Y2084425D01*
X3449523Y2135682D01*
X3438601Y2144979D01*
X3444748Y2156460D01*
X3444748Y2237384D01*
X3437534Y2260041D01*
X3433013Y2272741D01*
X3418738Y2304491D01*
X3390849Y2343607D01*
X3357473Y2371445D01*
X3332073Y2387447D01*
X3297123Y2400706D01*
X3268472Y2408072D01*
X3192373Y2405430D01*
X3173323Y2400858D01*
X3160623Y2395626D01*
X3129127Y2381656D01*
X3093313Y2357323D01*
X3064357Y2325116D01*
X3055112Y2325116D01*
X3008223Y2343607D01*
X2979623Y2354326D01*
X2951073Y2363571D01*
X2938373Y2369312D01*
X2874873Y2389428D01*
X2862173Y2394458D01*
X2846273Y2398572D01*
X2782773Y2416759D01*
X2731973Y2430424D01*
X2709773Y2435606D01*
X2674823Y2443327D01*
X2646273Y2449271D01*
X2614523Y2455265D01*
X2570073Y2462174D01*
X2528773Y2467813D01*
X2458923Y2474468D01*
X2449423Y2476804D01*
G37*
D10*
X3785755Y-222135D02*
G01*
X3794991Y-203662D01*
X3813464Y-185188D01*
X3831935Y-175953D01*
X3868882Y-175953D01*
X3887355Y-185188D01*
X3905826Y-203662D01*
X3915064Y-222135D01*
X3924300Y-249844D01*
X3924300Y-296024D01*
X3915064Y-323735D01*
X3905826Y-342206D01*
X3887355Y-360679D01*
X3868882Y-369915D01*
X3831935Y-369915D01*
X3813464Y-360679D01*
X3794991Y-342206D01*
X3785755Y-323735D01*
X3678613Y-240606D02*
G01*
X3697084Y-249844D01*
X3715557Y-268315D01*
X3724795Y-296024D01*
X3724795Y-314497D01*
X3715557Y-342206D01*
X3697084Y-360679D01*
X3678613Y-369915D01*
X3650904Y-369915D01*
X3632431Y-360679D01*
X3613957Y-342206D01*
X3604722Y-314497D01*
X3604722Y-296024D01*
X3613957Y-268315D01*
X3632431Y-249844D01*
X3650904Y-240606D01*
X3678613Y-240606D01*
X3543762Y-175953D02*
G01*
X3543762Y-369915D01*
X3436620Y-240606D02*
G01*
X3455093Y-249844D01*
X3473564Y-268315D01*
X3482802Y-296024D01*
X3482802Y-314497D01*
X3473564Y-342206D01*
X3455093Y-360679D01*
X3436620Y-369915D01*
X3408911Y-369915D01*
X3390437Y-360679D01*
X3371964Y-342206D01*
X3362728Y-314497D01*
X3362728Y-296024D01*
X3371964Y-268315D01*
X3390437Y-249844D01*
X3408911Y-240606D01*
X3436620Y-240606D01*
X3301768Y-240606D02*
G01*
X3301768Y-369915D01*
X3301768Y-296024D02*
G01*
X3292533Y-268315D01*
X3274059Y-249844D01*
X3255586Y-240606D01*
X3227877Y-240606D01*
X3024677Y-175953D02*
G01*
X3024677Y-369915D01*
X3024677Y-175953D02*
G01*
X2941551Y-175953D01*
X2913842Y-185188D01*
X2904604Y-194424D01*
X2895368Y-212897D01*
X2895368Y-231371D01*
X2904604Y-249844D01*
X2913842Y-259079D01*
X2941551Y-268315D01*
X3024677Y-268315D01*
X2960024Y-268315D02*
G01*
X2895368Y-369915D01*
X2834408Y-296024D02*
G01*
X2723573Y-296024D01*
X2723573Y-277553D01*
X2732808Y-259079D01*
X2742044Y-249844D01*
X2760517Y-240606D01*
X2788226Y-240606D01*
X2806700Y-249844D01*
X2825173Y-268315D01*
X2834408Y-296024D01*
X2834408Y-314497D01*
X2825173Y-342206D01*
X2806700Y-360679D01*
X2788226Y-369915D01*
X2760517Y-369915D01*
X2742044Y-360679D01*
X2723573Y-342206D01*
X2551775Y-240606D02*
G01*
X2551775Y-369915D01*
X2551775Y-268315D02*
G01*
X2570248Y-249844D01*
X2588722Y-240606D01*
X2616431Y-240606D01*
X2634904Y-249844D01*
X2653375Y-268315D01*
X2662613Y-296024D01*
X2662613Y-314497D01*
X2653375Y-342206D01*
X2634904Y-360679D01*
X2616431Y-369915D01*
X2588722Y-369915D01*
X2570248Y-360679D01*
X2551775Y-342206D01*
X2379979Y-175953D02*
G01*
X2379979Y-369915D01*
X2379979Y-268315D02*
G01*
X2398453Y-249844D01*
X2416924Y-240606D01*
X2444635Y-240606D01*
X2463106Y-249844D01*
X2481579Y-268315D01*
X2490815Y-296024D01*
X2490815Y-314497D01*
X2481579Y-342206D01*
X2463106Y-360679D01*
X2444635Y-369915D01*
X2416924Y-369915D01*
X2398453Y-360679D01*
X2379979Y-342206D01*
X2319020Y-296024D02*
G01*
X2208184Y-296024D01*
X2208184Y-277553D01*
X2217420Y-259079D01*
X2226655Y-249844D01*
X2245128Y-240606D01*
X2272837Y-240606D01*
X2291311Y-249844D01*
X2309784Y-268315D01*
X2319020Y-296024D01*
X2319020Y-314497D01*
X2309784Y-342206D01*
X2291311Y-360679D01*
X2272837Y-369915D01*
X2245128Y-369915D01*
X2226655Y-360679D01*
X2208184Y-342206D01*
X2147224Y-240606D02*
G01*
X2147224Y-369915D01*
X2147224Y-296024D02*
G01*
X2137986Y-268315D01*
X2119515Y-249844D01*
X2101042Y-240606D01*
X2073333Y-240606D01*
X1870133Y-240606D02*
G01*
X1814715Y-369915D01*
X1759295Y-240606D02*
G01*
X1814715Y-369915D01*
X1698335Y-212897D02*
G01*
X1679864Y-203662D01*
X1652155Y-175953D01*
X1652155Y-369915D01*
X1581957Y-323735D02*
G01*
X1591195Y-332971D01*
X1581957Y-342206D01*
X1572722Y-332971D01*
X1581957Y-323735D01*
X1456344Y-175953D02*
G01*
X1484053Y-185188D01*
X1502524Y-212897D01*
X1511762Y-259079D01*
X1511762Y-286788D01*
X1502524Y-332971D01*
X1484053Y-360679D01*
X1456344Y-369915D01*
X1437871Y-369915D01*
X1410162Y-360679D01*
X1391688Y-332971D01*
X1382453Y-286788D01*
X1382453Y-259079D01*
X1391688Y-212897D01*
X1410162Y-185188D01*
X1437871Y-175953D01*
X1456344Y-175953D01*
X5779770Y2978150D02*
G01*
X5788913Y2996692D01*
X5807456Y3015234D01*
X5825743Y3024378D01*
X5862827Y3024378D01*
X5881370Y3015234D01*
X5899658Y2996692D01*
X5909056Y2978150D01*
X5918200Y2950463D01*
X5918200Y2904489D01*
X5909056Y2876550D01*
X5899658Y2858262D01*
X5881370Y2839720D01*
X5862827Y2830576D01*
X5825743Y2830576D01*
X5807456Y2839720D01*
X5788913Y2858262D01*
X5779770Y2876550D01*
X5672581Y2959862D02*
G01*
X5690870Y2950463D01*
X5709411Y2932176D01*
X5718809Y2904489D01*
X5718809Y2885947D01*
X5709411Y2858262D01*
X5690870Y2839720D01*
X5672581Y2830576D01*
X5644895Y2830576D01*
X5626354Y2839720D01*
X5607811Y2858262D01*
X5598668Y2885947D01*
X5598668Y2904489D01*
X5607811Y2932176D01*
X5626354Y2950463D01*
X5644895Y2959862D01*
X5672581Y2959862D01*
X5436108Y2932176D02*
G01*
X5445252Y2950463D01*
X5472938Y2959862D01*
X5500624Y2959862D01*
X5528309Y2950463D01*
X5537708Y2932176D01*
X5528309Y2913634D01*
X5510022Y2904489D01*
X5463793Y2895092D01*
X5445252Y2885947D01*
X5436108Y2867405D01*
X5436108Y2858262D01*
X5445252Y2839720D01*
X5472938Y2830576D01*
X5500624Y2830576D01*
X5528309Y2839720D01*
X5537708Y2858262D01*
X5375147Y2959862D02*
G01*
X5375147Y2830576D01*
X5375147Y2922778D02*
G01*
X5347461Y2950463D01*
X5328920Y2959862D01*
X5301234Y2959862D01*
X5282691Y2950463D01*
X5273547Y2922778D01*
X5273547Y2830576D01*
X5273547Y2922778D02*
G01*
X5245861Y2950463D01*
X5227320Y2959862D01*
X5199634Y2959862D01*
X5181091Y2950463D01*
X5171947Y2922778D01*
X5171947Y2830576D01*
X5110988Y3024378D02*
G01*
X5101590Y3015234D01*
X5092445Y3024378D01*
X5101590Y3033776D01*
X5110988Y3024378D01*
X5101590Y2959862D02*
G01*
X5101590Y2830576D01*
X4920741Y2932176D02*
G01*
X4939029Y2950463D01*
X4957572Y2959862D01*
X4985258Y2959862D01*
X5003800Y2950463D01*
X5022341Y2932176D01*
X5031486Y2904489D01*
X5031486Y2885947D01*
X5022341Y2858262D01*
X5003800Y2839720D01*
X4985258Y2830576D01*
X4957572Y2830576D01*
X4939029Y2839720D01*
X4920741Y2858262D01*
X4859781Y3024378D02*
G01*
X4859781Y2830576D01*
X4859781Y3024378D02*
G01*
X4795011Y3024378D01*
X4767325Y3015234D01*
X4748784Y2996692D01*
X4739640Y2978150D01*
X4730495Y2950463D01*
X4730495Y2904489D01*
X4739640Y2876550D01*
X4748784Y2858262D01*
X4767325Y2839720D01*
X4795011Y2830576D01*
X4859781Y2830576D01*
X4669536Y2904489D02*
G01*
X4558538Y2904489D01*
X4558538Y2922778D01*
X4567936Y2941320D01*
X4577079Y2950463D01*
X4595622Y2959862D01*
X4623308Y2959862D01*
X4641850Y2950463D01*
X4660138Y2932176D01*
X4669536Y2904489D01*
X4669536Y2885947D01*
X4660138Y2858262D01*
X4641850Y2839720D01*
X4623308Y2830576D01*
X4595622Y2830576D01*
X4577079Y2839720D01*
X4558538Y2858262D01*
X4497577Y2959862D02*
G01*
X4442206Y2830576D01*
X4386834Y2959862D02*
G01*
X4442206Y2830576D01*
X4233418Y3024378D02*
G01*
X4325874Y2895092D01*
X4187190Y2895092D01*
X4233418Y3024378D02*
G01*
X4233418Y2830576D01*
X4070858Y3024378D02*
G01*
X4098543Y3015234D01*
X4117086Y2987547D01*
X4126229Y2941320D01*
X4126229Y2913634D01*
X4117086Y2867405D01*
X4098543Y2839720D01*
X4070858Y2830576D01*
X4052570Y2830576D01*
X4024629Y2839720D01*
X4006341Y2867405D01*
X3996943Y2913634D01*
X3996943Y2941320D01*
X4006341Y2987547D01*
X4024629Y3015234D01*
X4052570Y3024378D01*
X4070858Y3024378D01*
X3843781Y3024378D02*
G01*
X3935984Y2895092D01*
X3797554Y2895092D01*
X3843781Y3024378D02*
G01*
X3843781Y2830576D01*
X9855200Y2135378D02*
G01*
X9855200Y1941576D01*
X9855200Y2135378D02*
G01*
X9772141Y2135378D01*
X9744456Y2126234D01*
X9735058Y2117089D01*
X9725913Y2098547D01*
X9725913Y2070862D01*
X9735058Y2052320D01*
X9744456Y2043176D01*
X9772141Y2033778D01*
X9855200Y2033778D01*
X9664954Y2070862D02*
G01*
X9664954Y1941576D01*
X9664954Y2015489D02*
G01*
X9655809Y2043176D01*
X9637268Y2061463D01*
X9618725Y2070862D01*
X9591040Y2070862D01*
X9483852Y2070862D02*
G01*
X9502393Y2061463D01*
X9520936Y2043176D01*
X9530079Y2015489D01*
X9530079Y1996947D01*
X9520936Y1969262D01*
X9502393Y1950720D01*
X9483852Y1941576D01*
X9456165Y1941576D01*
X9437624Y1950720D01*
X9419336Y1969262D01*
X9409938Y1996947D01*
X9409938Y2015489D01*
X9419336Y2043176D01*
X9437624Y2061463D01*
X9456165Y2070862D01*
X9483852Y2070862D01*
X9348977Y2070862D02*
G01*
X9348977Y1978405D01*
X9339834Y1950720D01*
X9321291Y1941576D01*
X9293606Y1941576D01*
X9275063Y1950720D01*
X9247377Y1978405D01*
X9247377Y2070862D02*
G01*
X9247377Y1941576D01*
X9075674Y2135378D02*
G01*
X9075674Y1941576D01*
X9075674Y2043176D02*
G01*
X9094215Y2061463D01*
X9112504Y2070862D01*
X9140190Y2070862D01*
X9158731Y2061463D01*
X9177274Y2043176D01*
X9186418Y2015489D01*
X9186418Y1996947D01*
X9177274Y1969262D01*
X9158731Y1950720D01*
X9140190Y1941576D01*
X9112504Y1941576D01*
X9094215Y1950720D01*
X9075674Y1969262D01*
X9014713Y2135378D02*
G01*
X9014713Y1941576D01*
X8944609Y2070862D02*
G01*
X8888984Y1941576D01*
X8833611Y2070862D02*
G01*
X8888984Y1941576D01*
X8907525Y1904492D01*
X8926068Y1885950D01*
X8944609Y1876805D01*
X8953754Y1876805D01*
X8630411Y2135378D02*
G01*
X8630411Y1941576D01*
X8630411Y2135378D02*
G01*
X8556497Y1941576D01*
X8482584Y2135378D02*
G01*
X8556497Y1941576D01*
X8482584Y2135378D02*
G01*
X8482584Y1941576D01*
X8310879Y2070862D02*
G01*
X8310879Y1941576D01*
X8310879Y2043176D02*
G01*
X8329422Y2061463D01*
X8347709Y2070862D01*
X8375650Y2070862D01*
X8393938Y2061463D01*
X8412479Y2043176D01*
X8421624Y2015489D01*
X8421624Y1996947D01*
X8412479Y1969262D01*
X8393938Y1950720D01*
X8375650Y1941576D01*
X8347709Y1941576D01*
X8329422Y1950720D01*
X8310879Y1969262D01*
X8139175Y2135378D02*
G01*
X8139175Y1941576D01*
X8139175Y2043176D02*
G01*
X8157463Y2061463D01*
X8176006Y2070862D01*
X8203691Y2070862D01*
X8222234Y2061463D01*
X8240775Y2043176D01*
X8249920Y2015489D01*
X8249920Y1996947D01*
X8240775Y1969262D01*
X8222234Y1950720D01*
X8203691Y1941576D01*
X8176006Y1941576D01*
X8157463Y1950720D01*
X8139175Y1969262D01*
X8078215Y2015489D02*
G01*
X7967218Y2015489D01*
X7967218Y2033778D01*
X7976615Y2052320D01*
X7985759Y2061463D01*
X8004302Y2070862D01*
X8031988Y2070862D01*
X8050529Y2061463D01*
X8068818Y2043176D01*
X8078215Y2015489D01*
X8078215Y1996947D01*
X8068818Y1969262D01*
X8050529Y1950720D01*
X8031988Y1941576D01*
X8004302Y1941576D01*
X7985759Y1950720D01*
X7967218Y1969262D01*
X7764018Y2135378D02*
G01*
X7754874Y2126234D01*
X7745729Y2135378D01*
X7754874Y2144776D01*
X7764018Y2135378D01*
X7754874Y2070862D02*
G01*
X7754874Y1941576D01*
X7684770Y2070862D02*
G01*
X7684770Y1941576D01*
X7684770Y2033778D02*
G01*
X7656829Y2061463D01*
X7638541Y2070862D01*
X7610856Y2070862D01*
X7592313Y2061463D01*
X7583170Y2033778D01*
X7583170Y1941576D01*
X7379970Y2135378D02*
G01*
X7379970Y1941576D01*
X7319009Y2135378D02*
G01*
X7319009Y1941576D01*
X7319009Y2135378D02*
G01*
X7189470Y1941576D01*
X7189470Y2135378D02*
G01*
X7189470Y1941576D01*
X7128509Y2135378D02*
G01*
X7128509Y1941576D01*
X7128509Y2135378D02*
G01*
X7063993Y2135378D01*
X7036308Y2126234D01*
X7017765Y2107692D01*
X7008622Y2089150D01*
X6999224Y2061463D01*
X6999224Y2015489D01*
X7008622Y1987550D01*
X7017765Y1969262D01*
X7036308Y1950720D01*
X7063993Y1941576D01*
X7128509Y1941576D01*
X6938263Y2135378D02*
G01*
X6938263Y1941576D01*
X6803390Y2135378D02*
G01*
X6877304Y1941576D01*
X6803390Y2135378D02*
G01*
X6729729Y1941576D01*
X6849618Y2006092D02*
G01*
X6757415Y2006092D01*
M02*
