G04 Layer: TopSolderMaskLayer*
G04 EasyEDA v6.5.51, 2026-01-08 14:15:24*
G04 8ef0b08dc1df4c4d9fe98ab44df64a74,135c0aa5003143b9a617c0a099cfb315,10*
G04 Gerber Generator version 0.2*
G04 Scale: 100 percent, Rotated: No, Reflected: No *
G04 Dimensions in millimeters *
G04 leading zeros omitted , absolute positions ,4 integer and 5 decimal *
%FSLAX45Y45*%
%MOMM*%

%AMMACRO1*4,1,8,-0.8085,-0.8382,-0.8382,-0.8082,-0.8382,0.8085,-0.8085,0.8382,0.8082,0.8382,0.8382,0.8085,0.8382,-0.8082,0.8082,-0.8382,-0.8085,-0.8382,0*%
%AMMACRO2*4,1,8,-0.871,-0.9007,-0.9007,-0.8707,-0.9007,0.871,-0.871,0.9007,0.8707,0.9007,0.9007,0.871,0.9007,-0.8707,0.8707,-0.9007,-0.871,-0.9007,0*%
%AMMACRO3*4,1,8,-0.871,-0.9008,-0.9007,-0.8708,-0.9007,0.8711,-0.871,0.9008,0.8707,0.9008,0.9007,0.8711,0.9007,-0.8708,0.8707,-0.9008,-0.871,-0.9008,0*%
%AMMACRO4*4,1,8,-0.7211,-0.2508,-0.7508,-0.2209,-0.7508,0.2211,-0.7211,0.2508,0.7209,0.2508,0.7508,0.2211,0.7508,-0.2209,0.7209,-0.2508,-0.7211,-0.2508,0*%
%AMMACRO5*4,1,8,-0.7211,-0.2507,-0.7508,-0.2207,-0.7508,0.221,-0.7211,0.2507,0.7209,0.2507,0.7508,0.221,0.7508,-0.2207,0.7209,-0.2507,-0.7211,-0.2507,0*%
%ADD10C,1.6764*%
%ADD11MACRO1*%
%ADD12MACRO2*%
%ADD13C,1.8016*%
%ADD14MACRO3*%
%ADD15C,2.1016*%
%ADD16O,1.101598X1.101598*%
%ADD17C,1.7516*%
%ADD18C,1.8032*%
%ADD19C,0.0124*%
%ADD20C,1.6256*%
%ADD21MACRO4*%
%ADD22MACRO5*%
%ADD23O,1.951609X1.151611*%

%LPD*%
D10*
G01*
X3556000Y2616200D03*
G01*
X3302000Y2616200D03*
G01*
X3048000Y2616200D03*
G01*
X2794000Y2616200D03*
D11*
G01*
X2540000Y2616200D03*
D10*
G01*
X2235200Y2616200D03*
G01*
X1981200Y2616200D03*
G01*
X1727200Y2616200D03*
G01*
X1473200Y2616200D03*
D11*
G01*
X1219200Y2616200D03*
D10*
G01*
X2247900Y1117600D03*
G01*
X1993900Y1117600D03*
G01*
X1739900Y1117600D03*
G01*
X1485900Y1117600D03*
D11*
G01*
X1231900Y1117600D03*
D10*
G01*
X3568700Y1117600D03*
G01*
X3314700Y1117600D03*
G01*
X3060700Y1117600D03*
G01*
X2806700Y1117600D03*
D11*
G01*
X2552700Y1117600D03*
D12*
G01*
X4114800Y1117600D03*
D13*
G01*
X3860800Y1117600D03*
D14*
G01*
X3860800Y2616187D03*
D13*
G01*
X4114800Y2616200D03*
D14*
G01*
X2984500Y3428987D03*
D13*
G01*
X3238500Y3429000D03*
D15*
G01*
X-566293Y3178606D03*
G01*
X83693Y3178606D03*
G01*
X83693Y3628593D03*
G01*
X-566293Y3628593D03*
G01*
X-578993Y308406D03*
G01*
X70993Y308406D03*
G01*
X70993Y758393D03*
G01*
X-578993Y758393D03*
G01*
X6367906Y-136093D03*
G01*
X7017893Y-136093D03*
G01*
X7017893Y313893D03*
G01*
X6367906Y313893D03*
D16*
G01*
X10541000Y1571802D03*
G01*
X10541000Y1446809D03*
G01*
X10541000Y1196797D03*
G01*
X10541000Y1321790D03*
D17*
G01*
X6832600Y3467227D03*
G01*
X6578600Y3467227D03*
G01*
X6324600Y3467227D03*
G01*
X6070600Y3466972D03*
D18*
G01*
X10528300Y2438400D03*
G01*
X10528300Y2184400D03*
D20*
G01*
X8382000Y2832100D03*
G01*
X9632010Y2819400D03*
G01*
X8394700Y2273300D03*
G01*
X9644710Y2260600D03*
G01*
X8420100Y1676400D03*
G01*
X9670110Y1663700D03*
G01*
X8420100Y1143000D03*
G01*
X9670110Y1130300D03*
D15*
G01*
X9677400Y3860800D03*
G01*
X1092200Y-114300D03*
G01*
X965200Y3898900D03*
G01*
X9486900Y-139700D03*
G01*
X4953000Y3632200D03*
G01*
X8001000Y3632200D03*
G01*
X4965700Y698500D03*
G01*
X8001000Y711200D03*
D21*
G01*
X-385495Y2009609D03*
G01*
X-385495Y1944611D03*
D22*
G01*
X-385495Y1879600D03*
D21*
G01*
X-385495Y1814588D03*
G01*
X-385495Y1749590D03*
D23*
G01*
X-680491Y2237079D03*
G01*
X-335508Y1522095D03*
G01*
X-675512Y1522095D03*
G01*
X-335508Y2237079D03*
M02*
