M48
METRIC,LZ,000.000
;FILE_FORMAT=3:3
;TYPE=PLATED
;Layer: PTH_Through
;EasyEDA v6.5.51, 2026-01-08 14:15:24
;8ef0b08dc1df4c4d9fe98ab44df64a74,135c0aa5003143b9a617c0a099cfb315,10
;Gerber Generator version 0.2
;Holesize 1 = 0.450 mm
T01C0.450
;Holesize 2 = 0.701 mm
T02C0.701
;Holesize 3 = 0.800 mm
T03C0.800
;Holesize 4 = 0.915 mm
T04C0.915
;Holesize 5 = 1.000 mm
T05C1.000
;Holesize 6 = 1.021 mm
T06C1.021
;Holesize 7 = 1.200 mm
T07C1.200
;Holesize 8 = 2.000 mm
T08C2.000
%
G05
G90
T01
X-007280Y022371G85X-006330Y022371
X-003830Y015221G85X-002880Y015221
X-007230Y015221G85X-006280Y015221
X-003830Y022371G85X-002880Y022371
T02
X105410Y015718
X105410Y014468
X105410Y011968
X105410Y013218
T03
X105283Y021847G85X105283Y021841
T04
X083817Y028321G85X083823Y028321
X096318Y028194G85X096323Y028194
X083944Y022733G85X083950Y022733
X096445Y022606G85X096450Y022606
X084198Y016764G85X084204Y016764
X096699Y016637G85X096704Y016637
X084198Y011430G85X084204Y011430
X096699Y011303G85X096704Y011303
T05
X041148Y011176
X038608Y011176
X038608Y026162
X041148Y026162
X029845Y034290
X032385Y034290
X068326Y034673
X065786Y034673
X063246Y034673
X060706Y034670
T06
X035560Y026162
X033020Y026162
X030480Y026162
X027940Y026162
X025400Y026162
X022352Y026162
X019812Y026162
X017272Y026162
X014732Y026162
X012192Y026162
X022479Y011176
X019939Y011176
X017399Y011176
X014859Y011176
X012319Y011176
X035687Y011176
X033147Y011176
X030607Y011176
X028067Y011176
X025527Y011176
T07
X-005663Y031786
X000837Y031786
X000837Y036286
X-005663Y036286
X-005790Y003084
X000710Y003084
X000710Y007584
X-005790Y007584
X063679Y-001361
X070179Y-001361
X070179Y003139
X063679Y003139
T08
X096774Y038608
X010922Y-001143
X009652Y038989
X094869Y-001397
X049530Y036322
X080010Y036322
X049657Y006985
X080010Y007112
M30
