G04 Layer: BottomLayer*
G04 EasyEDA v6.5.51, 2026-01-08 14:15:24*
G04 8ef0b08dc1df4c4d9fe98ab44df64a74,135c0aa5003143b9a617c0a099cfb315,10*
G04 Gerber Generator version 0.2*
G04 Scale: 100 percent, Rotated: No, Reflected: No *
G04 Dimensions in millimeters *
G04 leading zeros omitted , absolute positions ,4 integer and 5 decimal *
%FSLAX45Y45*%
%MOMM*%

%ADD10C,0.2540*%
%ADD11C,0.5000*%
%ADD12C,1.5748*%
%ADD13R,1.5748X1.5748*%
%ADD14R,1.7000X1.7000*%
%ADD15R,0.0152X1.7000*%
%ADD16C,1.7000*%
%ADD17C,2.0000*%
%ADD18O,0.999998X0.999998*%
%ADD19C,1.6500*%
%ADD20C,1.6000*%
%ADD21C,1.5240*%
%ADD22O,1.850009X1.050011*%

%LPD*%
D10*
X6832600Y3467227D02*
G01*
X6705600Y3860800D01*
X6705600Y3860800D02*
G01*
X3543300Y3873500D01*
X3238500Y3429000D01*
X8394700Y2273300D02*
G01*
X8686800Y2006600D01*
X10210800Y1993900D01*
X10541000Y1571802D01*
X0Y1689100D02*
G01*
X0Y2197100D01*
X0Y2705100D01*
X-566165Y3628644D01*
X-578865Y758446D02*
G01*
X750570Y245869D01*
X2989069Y245869D01*
X3860800Y1117600D01*
D11*
X10769600Y1384300D02*
G01*
X10744200Y2425700D01*
X10604500Y2667000D01*
X8610600Y2641600D01*
X8382000Y2832100D01*
X10541000Y1321790D02*
G01*
X10694390Y1321790D01*
X10769600Y1397000D01*
X1435100Y2616200D02*
G01*
X872746Y3178553D01*
X83565Y3178553D01*
X5676900Y2895600D02*
G01*
X1790700Y2895600D01*
X1435100Y2616200D01*
D10*
X6368034Y313946D02*
G01*
X5283200Y330200D01*
X4165600Y1447800D01*
X0Y1689100D02*
G01*
X254000Y1435100D01*
X2463800Y1435100D01*
X2463800Y1435100D02*
G01*
X2781300Y1244600D01*
X2781300Y1079500D01*
X4165600Y1447800D02*
G01*
X3886200Y1447800D01*
X3543300Y1079500D01*
D11*
X10528300Y2184400D02*
G01*
X10274300Y2438400D01*
X7289800Y2438400D01*
X6070600Y2861871D02*
G01*
X6121400Y939800D01*
X5689600Y2908300D02*
G01*
X6070600Y3467100D01*
X6070600Y3466975D02*
G01*
X6070600Y2861871D01*
X7289800Y2438400D02*
G01*
X6324600Y3467224D01*
X6121400Y927100D02*
G01*
X7017890Y-136090D01*
D12*
G01*
X3556000Y2616200D03*
G01*
X3302000Y2616200D03*
G01*
X3048000Y2616200D03*
G01*
X2794000Y2616200D03*
D13*
G01*
X2540000Y2616200D03*
D12*
G01*
X2235200Y2616200D03*
G01*
X1981200Y2616200D03*
G01*
X1727200Y2616200D03*
G01*
X1473200Y2616200D03*
D13*
G01*
X1219200Y2616200D03*
D12*
G01*
X2247900Y1117600D03*
G01*
X1993900Y1117600D03*
G01*
X1739900Y1117600D03*
G01*
X1485900Y1117600D03*
D13*
G01*
X1231900Y1117600D03*
D12*
G01*
X3568700Y1117600D03*
G01*
X3314700Y1117600D03*
G01*
X3060700Y1117600D03*
G01*
X2806700Y1117600D03*
D13*
G01*
X2552700Y1117600D03*
D14*
G01*
X4114800Y1117600D03*
D16*
G01*
X3860800Y1117600D03*
D14*
G01*
X3860800Y2616200D03*
D16*
G01*
X4114800Y2616200D03*
D14*
G01*
X2984500Y3429000D03*
D16*
G01*
X3238500Y3429000D03*
D17*
G01*
X-566293Y3178606D03*
G01*
X83693Y3178606D03*
G01*
X83693Y3628593D03*
G01*
X-566293Y3628593D03*
G01*
X-578993Y308406D03*
G01*
X70993Y308406D03*
G01*
X70993Y758393D03*
G01*
X-578993Y758393D03*
G01*
X6367906Y-136093D03*
G01*
X7017893Y-136093D03*
G01*
X7017893Y313893D03*
G01*
X6367906Y313893D03*
D18*
G01*
X10541000Y1571802D03*
G01*
X10541000Y1446809D03*
G01*
X10541000Y1196797D03*
G01*
X10541000Y1321790D03*
D19*
G01*
X6832600Y3467227D03*
G01*
X6578600Y3467227D03*
G01*
X6324600Y3467227D03*
G01*
X6070600Y3466972D03*
D20*
G01*
X10528300Y2438400D03*
G01*
X10528300Y2184400D03*
D21*
G01*
X8382000Y2832100D03*
G01*
X9632010Y2819400D03*
G01*
X8394700Y2273300D03*
G01*
X9644710Y2260600D03*
G01*
X8420100Y1676400D03*
G01*
X9670110Y1663700D03*
G01*
X8420100Y1143000D03*
G01*
X9670110Y1130300D03*
D17*
G01*
X9677400Y3860800D03*
G01*
X1092200Y-114300D03*
G01*
X965200Y3898900D03*
G01*
X9486900Y-139700D03*
G01*
X4953000Y3632200D03*
G01*
X8001000Y3632200D03*
G01*
X4965700Y698500D03*
G01*
X8001000Y711200D03*
D22*
G01*
X-680491Y2237079D03*
G01*
X-335508Y1522095D03*
G01*
X-675512Y1522095D03*
G01*
X-335508Y2237079D03*
M02*
