G04 Layer: TopLayer*
G04 EasyEDA v6.5.51, 2026-01-08 14:15:24*
G04 8ef0b08dc1df4c4d9fe98ab44df64a74,135c0aa5003143b9a617c0a099cfb315,10*
G04 Gerber Generator version 0.2*
G04 Scale: 100 percent, Rotated: No, Reflected: No *
G04 Dimensions in millimeters *
G04 leading zeros omitted , absolute positions ,4 integer and 5 decimal *
%FSLAX45Y45*%
%MOMM*%

%ADD10C,0.2032*%
%ADD11C,0.2540*%
%ADD12C,0.5000*%
%ADD13R,1.4000X0.4000*%
%ADD14C,1.5748*%
%ADD15R,1.5748X1.5748*%
%ADD16R,1.7000X1.7000*%
%ADD17C,1.7000*%
%ADD18C,0.0187*%
%ADD19C,2.0000*%
%ADD20O,0.999998X0.999998*%
%ADD21C,1.6500*%
%ADD22C,1.6000*%
%ADD23C,1.5240*%
%ADD24O,1.850009X1.050011*%

%LPD*%
D10*
X7288529Y-222250D02*
G01*
X7279386Y-203707D01*
X7260843Y-185165D01*
X7242556Y-176021D01*
X7205472Y-176021D01*
X7186929Y-185165D01*
X7168641Y-203707D01*
X7159243Y-222250D01*
X7150100Y-249936D01*
X7150100Y-295910D01*
X7159243Y-323850D01*
X7168641Y-342137D01*
X7186929Y-360679D01*
X7205472Y-369823D01*
X7242556Y-369823D01*
X7260843Y-360679D01*
X7279386Y-342137D01*
X7288529Y-323850D01*
X7395718Y-240537D02*
G01*
X7377429Y-249936D01*
X7358888Y-268223D01*
X7349490Y-295910D01*
X7349490Y-314452D01*
X7358888Y-342137D01*
X7377429Y-360679D01*
X7395718Y-369823D01*
X7423404Y-369823D01*
X7441945Y-360679D01*
X7460488Y-342137D01*
X7469631Y-314452D01*
X7469631Y-295910D01*
X7460488Y-268223D01*
X7441945Y-249936D01*
X7423404Y-240537D01*
X7395718Y-240537D01*
X7632191Y-268223D02*
G01*
X7623047Y-249936D01*
X7595361Y-240537D01*
X7567675Y-240537D01*
X7539990Y-249936D01*
X7530591Y-268223D01*
X7539990Y-286765D01*
X7558277Y-295910D01*
X7604506Y-305307D01*
X7623047Y-314452D01*
X7632191Y-332994D01*
X7632191Y-342137D01*
X7623047Y-360679D01*
X7595361Y-369823D01*
X7567675Y-369823D01*
X7539990Y-360679D01*
X7530591Y-342137D01*
X7693152Y-240537D02*
G01*
X7693152Y-369823D01*
X7693152Y-277621D02*
G01*
X7720838Y-249936D01*
X7739379Y-240537D01*
X7767065Y-240537D01*
X7785608Y-249936D01*
X7794752Y-277621D01*
X7794752Y-369823D01*
X7794752Y-277621D02*
G01*
X7822438Y-249936D01*
X7840979Y-240537D01*
X7868665Y-240537D01*
X7887208Y-249936D01*
X7896352Y-277621D01*
X7896352Y-369823D01*
X7957311Y-176021D02*
G01*
X7966709Y-185165D01*
X7975854Y-176021D01*
X7966709Y-166623D01*
X7957311Y-176021D01*
X7966709Y-240537D02*
G01*
X7966709Y-369823D01*
X8147558Y-268223D02*
G01*
X8129270Y-249936D01*
X8110727Y-240537D01*
X8083041Y-240537D01*
X8064500Y-249936D01*
X8045958Y-268223D01*
X8036813Y-295910D01*
X8036813Y-314452D01*
X8045958Y-342137D01*
X8064500Y-360679D01*
X8083041Y-369823D01*
X8110727Y-369823D01*
X8129270Y-360679D01*
X8147558Y-342137D01*
X8208518Y-176021D02*
G01*
X8208518Y-369823D01*
X8208518Y-176021D02*
G01*
X8273288Y-176021D01*
X8300974Y-185165D01*
X8319515Y-203707D01*
X8328659Y-222250D01*
X8337804Y-249936D01*
X8337804Y-295910D01*
X8328659Y-323850D01*
X8319515Y-342137D01*
X8300974Y-360679D01*
X8273288Y-369823D01*
X8208518Y-369823D01*
X8398763Y-295910D02*
G01*
X8509761Y-295910D01*
X8509761Y-277621D01*
X8500363Y-259079D01*
X8491220Y-249936D01*
X8472677Y-240537D01*
X8444991Y-240537D01*
X8426450Y-249936D01*
X8408161Y-268223D01*
X8398763Y-295910D01*
X8398763Y-314452D01*
X8408161Y-342137D01*
X8426450Y-360679D01*
X8444991Y-369823D01*
X8472677Y-369823D01*
X8491220Y-360679D01*
X8509761Y-342137D01*
X8570722Y-240537D02*
G01*
X8626093Y-369823D01*
X8681465Y-240537D02*
G01*
X8626093Y-369823D01*
X8834881Y-176021D02*
G01*
X8742425Y-305307D01*
X8881109Y-305307D01*
X8834881Y-176021D02*
G01*
X8834881Y-369823D01*
X8997441Y-176021D02*
G01*
X8969756Y-185165D01*
X8951213Y-212852D01*
X8942070Y-259079D01*
X8942070Y-286765D01*
X8951213Y-332994D01*
X8969756Y-360679D01*
X8997441Y-369823D01*
X9015729Y-369823D01*
X9043670Y-360679D01*
X9061958Y-332994D01*
X9071356Y-286765D01*
X9071356Y-259079D01*
X9061958Y-212852D01*
X9043670Y-185165D01*
X9015729Y-176021D01*
X8997441Y-176021D01*
X9224518Y-176021D02*
G01*
X9132315Y-305307D01*
X9270745Y-305307D01*
X9224518Y-176021D02*
G01*
X9224518Y-369823D01*
D11*
X2984500Y3429000D02*
G01*
X3416300Y4051300D01*
X6362700Y4038600D01*
X6578600Y3467100D01*
X9829800Y2819400D02*
G01*
X9632010Y2819400D01*
X10528300Y2438400D02*
G01*
X10350500Y2438400D01*
X9829800Y2819400D01*
X9632007Y2819400D02*
G01*
X9540415Y2727807D01*
X4721026Y2727807D01*
X4254500Y2362200D01*
X3289300Y2362200D01*
X3035300Y2616200D01*
D12*
X-287530Y1749605D02*
G01*
X-207088Y1669163D01*
X-207088Y586488D01*
X70990Y308409D01*
X-483461Y1749605D02*
G01*
X-533958Y1800100D01*
X-533958Y2560954D01*
X83690Y3178609D01*
D11*
X-411657Y1749605D02*
G01*
X-483461Y1749605D01*
X-411657Y1749605D02*
G01*
X-385495Y1749605D01*
X-385495Y1749605D02*
G01*
X-287530Y1749605D01*
X-385495Y2009620D02*
G01*
X-287530Y2009620D01*
X8420100Y1143000D02*
G01*
X8581009Y1303909D01*
X9662083Y1303909D01*
X9885121Y1080871D01*
X10425074Y1080871D01*
X10541000Y1196797D01*
X8420100Y1676400D02*
G01*
X8576335Y1832635D01*
X10155174Y1832635D01*
X10541000Y1446809D01*
D12*
X-287020Y2009647D02*
G01*
X-287020Y2064765D01*
X-68326Y2283968D01*
X1701800Y2286000D01*
X1905000Y2413000D01*
X1943100Y2616200D01*
D11*
X4203700Y800100D02*
G01*
X3289300Y800100D01*
X3035300Y1054100D01*
X2527300Y876300D02*
G01*
X2527300Y1054100D01*
X9670034Y1130300D02*
G01*
X8801100Y508000D01*
X2971800Y495300D01*
X2939541Y527557D01*
X2527300Y876300D01*
X3289300Y1117600D02*
G01*
X3810000Y1638300D01*
X7200900Y1638300D01*
X7720992Y2009142D02*
G01*
X9393151Y2009142D01*
X9644707Y2260600D01*
D12*
X8382000Y2832100D02*
G01*
X6578475Y2832100D01*
X5435600Y3022600D02*
G01*
X2476500Y3035300D01*
X1943100Y2616200D01*
X6324600Y3467100D02*
G01*
X6197600Y3670300D01*
X6197600Y3670300D02*
G01*
X6013450Y3670300D01*
X5435600Y3022600D01*
X6578600Y2832160D02*
G01*
X6070600Y3466972D01*
D11*
X7200900Y1638300D02*
G01*
X7720992Y2009142D01*
X9670034Y1663700D02*
G01*
X9458957Y1452623D01*
X4787651Y1452623D01*
X4203700Y800100D01*
D13*
G01*
X-385495Y2009597D03*
G01*
X-385495Y1944598D03*
G01*
X-385495Y1879600D03*
G01*
X-385495Y1814601D03*
G01*
X-385495Y1749602D03*
D14*
G01*
X3556000Y2616200D03*
G01*
X3302000Y2616200D03*
G01*
X3048000Y2616200D03*
G01*
X2794000Y2616200D03*
D15*
G01*
X2540000Y2616200D03*
D14*
G01*
X2235200Y2616200D03*
G01*
X1981200Y2616200D03*
G01*
X1727200Y2616200D03*
G01*
X1473200Y2616200D03*
D15*
G01*
X1219200Y2616200D03*
D14*
G01*
X2247900Y1117600D03*
G01*
X1993900Y1117600D03*
G01*
X1739900Y1117600D03*
G01*
X1485900Y1117600D03*
D15*
G01*
X1231900Y1117600D03*
D14*
G01*
X3568700Y1117600D03*
G01*
X3314700Y1117600D03*
G01*
X3060700Y1117600D03*
G01*
X2806700Y1117600D03*
D15*
G01*
X2552700Y1117600D03*
D16*
G01*
X4114800Y1117600D03*
D17*
G01*
X3860800Y1117600D03*
D16*
G01*
X3860800Y2616200D03*
D17*
G01*
X4114800Y2616200D03*
D16*
G01*
X2984500Y3429000D03*
D17*
G01*
X3238500Y3429000D03*
D19*
G01*
X-566293Y3178606D03*
G01*
X83693Y3178606D03*
G01*
X83693Y3628593D03*
G01*
X-566293Y3628593D03*
G01*
X-578993Y308406D03*
G01*
X70993Y308406D03*
G01*
X70993Y758393D03*
G01*
X-578993Y758393D03*
G01*
X6367906Y-136093D03*
G01*
X7017893Y-136093D03*
G01*
X7017893Y313893D03*
G01*
X6367906Y313893D03*
D20*
G01*
X10541000Y1571802D03*
G01*
X10541000Y1446809D03*
G01*
X10541000Y1196797D03*
G01*
X10541000Y1321790D03*
D21*
G01*
X6832600Y3467227D03*
G01*
X6578600Y3467227D03*
G01*
X6324600Y3467227D03*
G01*
X6070600Y3466972D03*
D22*
G01*
X10528300Y2438400D03*
G01*
X10528300Y2184400D03*
D23*
G01*
X8382000Y2832100D03*
G01*
X9632010Y2819400D03*
G01*
X8394700Y2273300D03*
G01*
X9644710Y2260600D03*
G01*
X8420100Y1676400D03*
G01*
X9670110Y1663700D03*
G01*
X8420100Y1143000D03*
G01*
X9670110Y1130300D03*
D19*
G01*
X9677400Y3860800D03*
G01*
X1092200Y-114300D03*
G01*
X965200Y3898900D03*
G01*
X9486900Y-139700D03*
G01*
X4953000Y3632200D03*
G01*
X8001000Y3632200D03*
G01*
X4965700Y698500D03*
G01*
X8001000Y711200D03*
D24*
G01*
X-680491Y2237079D03*
G01*
X-335508Y1522095D03*
G01*
X-675512Y1522095D03*
G01*
X-335508Y2237079D03*
M02*
